<svg width="968" height="968" viewBox="0 0 968 968" fill="none" xmlns="http://www.w3.org/2000/svg">
<circle cx="484" cy="484" r="484" fill="#4E9C2C"/>
<path d="M385.454 310L609.785 609H726C734.284 609 741 602.284 741 594V375C741 366.716 734.284 360 726 360H609.463L536 452L504.374 413.085L585.113 310H771C782.046 310 791 318.954 791 330V639C791 650.046 782.046 659 771 659H584.791L360.459 360H241C232.716 360 226 366.716 226 375V594C226 602.284 232.716 609 241 609H360.321L430.475 513.675L462 551.5L385.593 659H196C184.954 659 176 650.046 176 639V330C176 318.954 184.954 310 196 310H385.454Z" fill="white"/>
<rect x="816" y="425" width="50" height="120" rx="14" fill="white"/>
</svg>
